<svg id="레이어_1" data-name="레이어 1" xmlns="http://www.w3.org/2000/svg" viewBox="0 0 216.45 207.7"><defs><style>.cls-1{fill:#79f7de;}</style></defs><title>4</title><path class="cls-1" d="M197.1,242.72l-44-22.76a14.91,14.91,0,0,0-13.85.09L95.59,243.39A14.88,14.88,0,0,1,73.9,227.84l8-48.86a14.87,14.87,0,0,0-4.36-13.14L41.89,131.51A14.88,14.88,0,0,1,50,106.07l49-7.44a14.86,14.86,0,0,0,11.15-8.22L131.7,45.86a14.87,14.87,0,0,1,26.68-.17L180.59,90A14.9,14.9,0,0,0,191.85,98l49.05,6.8a14.88,14.88,0,0,1,8.42,25.33l-35.23,34.8a14.86,14.86,0,0,0-4.2,13.2l8.7,48.75A14.89,14.89,0,0,1,197.1,242.72Z" transform="translate(-37.31 -37.48)"/></svg>