<?xml version="1.0" encoding="utf-8"?>
<!-- Generator: Adobe Illustrator 23.0.0, SVG Export Plug-In . SVG Version: 6.00 Build 0)  -->
<svg version="1.1" id="레이어_1" xmlns="http://www.w3.org/2000/svg" xmlns:xlink="http://www.w3.org/1999/xlink" x="0px"
	 y="0px" viewBox="0 0 300 300" style="enable-background:new 0 0 300 300;" xml:space="preserve">
<style type="text/css">
	.st0{fill:#EEE236;}
	.st1{fill:#71BCF4;}
	.st2{display:none;fill:none;stroke:#F19595;stroke-width:13;stroke-linecap:round;stroke-linejoin:round;stroke-miterlimit:10;}
	.st3{fill:none;stroke:#F19595;stroke-width:27;stroke-linecap:round;stroke-linejoin:round;stroke-miterlimit:10;}
</style>
<g>
	<path class="st0" d="M72.29,101.27l74.74,91.32l-94.49,25.03L72.29,101.27 M63.38,54.87c-5.69,0-11.25,3.85-12.37,10.39
		l-28.87,170.1c-1.33,7.83,4.82,14.56,12.25,14.56c1.06,0,2.14-0.14,3.23-0.43l138.14-36.59c8.77-2.32,12.2-12.93,6.46-19.95
		L72.95,59.45C70.38,56.31,66.86,54.87,63.38,54.87L63.38,54.87z"/>
</g>
<g>
	<path class="st1" d="M194,154c29.22,0,53,23.78,53,53s-23.78,53-53,53s-53-23.78-53-53S164.78,154,194,154 M194,127
		c-44.18,0-80,35.82-80,80s35.82,80,80,80s80-35.82,80-80S238.18,127,194,127L194,127z"/>
</g>
<path class="st2" d="M109.5,173.5c0,0,20-26,38-1s35-3,35-3"/>
<path class="st3" d="M73.65,35.79c0,0,94.34-25.26,97.68,75.23c3.01,90.44,90.44,54.19,95.62,56.62"/>
</svg>
